<svg xmlns="http://www.w3.org/2000/svg" viewBox="0 0 48 48" fill="none">
  <path d="M0.854023 30.3588C0.288116 28.2979 0 26.1573 0 24.0013C0 14.1592 6.18126 5.16 15.3824 1.61121L16.5888 4.73343C8.66867 7.78884 3.34915 15.5314 3.34915 24.0013C3.34915 25.8592 3.59608 27.6991 4.08225 29.4722L0.854023 30.3588Z" fill="#69D3A7"/>
  <path d="M42.4508 14.4933C38.8702 7.61925 31.8221 3.34836 24.0614 3.34836C21.3116 3.34836 18.639 3.87772 16.1233 4.91846L14.8397 1.82707C17.7644 0.616732 20.8666 0 24.0614 0C33.0774 0 41.2624 4.95958 45.4219 12.9463L42.4508 14.4933Z" fill="url(#paint0_linear_77_377)"/>
  <path d="M16.877 19.0495C18.819 19.0495 20.401 20.0851 21.2139 21.8916L21.2782 22.0329L24.5398 20.9254L24.4704 20.7584C23.2074 17.6824 20.2981 15.7705 16.877 15.7705C14.4718 15.7705 12.5169 16.5414 10.9015 18.1244C9.29634 19.6971 8.48352 21.6757 8.48352 24.0065C8.48352 26.3167 9.29634 28.2851 10.9015 29.8578C12.5169 31.4407 14.4718 32.2116 16.877 32.2116C20.2981 32.2116 23.2074 30.2998 24.4704 27.2264L24.5398 27.0593L21.273 25.9492L21.2113 26.0957C20.4833 27.8714 18.8628 28.9327 16.877 28.9327C15.5239 28.9327 14.3818 28.4598 13.4763 27.5296C12.5606 26.5865 12.0976 25.4019 12.0976 24.0091C12.0976 22.606 12.5503 21.4445 13.4763 20.4577C14.3792 19.5223 15.5239 19.0495 16.877 19.0495Z" fill="#1B1E2E"/>
  <path d="M37.3061 16.0737L32.658 27.8354L27.979 16.0737H24.1514L30.7133 32.1268L26.0446 43.4491L29.3912 44.1146L40.9228 16.0737H37.3061Z" fill="#1B1E2E"/>
  <defs>
    <linearGradient id="paint0_linear_77_377" x1="21.5577" y1="-1.54942" x2="39.8226" y2="17.9723" gradientUnits="userSpaceOnUse">
      <stop offset="0.0939" stop-color="#58D09E"/>
      <stop offset="0.9883" stop-color="#58D09E" stop-opacity="0"/>
    </linearGradient>
    <linearGradient id="paint1_linear_77_377" x1="-0.256416" y1="34.9216" x2="34.638" y2="44.2092" gradientUnits="userSpaceOnUse">
      <stop offset="0.0774" stop-color="#58D09E"/>
      <stop offset="0.7617" stop-color="#1B1E2E"/>
    </linearGradient>
  </defs>
</svg>